<?xml version="1.0" encoding="utf-8"?>
<!-- Generator: Adobe Illustrator 18.1.1, SVG Export Plug-In . SVG Version: 6.00 Build 0)  -->
<svg version="1.1" id="Layer_1" xmlns="http://www.w3.org/2000/svg" xmlns:xlink="http://www.w3.org/1999/xlink" x="0px" y="0px"
	 viewBox="0 0 301 274.7" enable-background="new 0 0 301 274.7" xml:space="preserve">
<path fill="#D3D5D6" d="M80.9,156.6c0,0-55,38-73.3,44.3c0,0,27.5,20,90.8-27.3l-12.6-13.8L80.9,156.6z"/>
<polygon fill="#D3D5D6" points="229.2,45.3 210.7,59.3 226.7,68.8 242.2,57.8 "/>
<polygon fill="#FFFFFF" points="232.4,53.1 217.4,64.5 210.7,59.3 222.8,50.1 227.4,46.8 233.8,48.5 "/>
<g>
	<path d="M88.9,166.3c0,0-13.3,7.3-26.8,14.4c-6.7,3.5-13.5,7-18.6,9.5c-2.6,1.2-4.7,2.2-6.3,2.9c-0.8,0.3-1.4,0.5-1.8,0.7
		c-0.4,0.1-0.6,0.2-0.6,0.2s0.2-0.1,0.6-0.3c0.4-0.2,1-0.4,1.7-0.9c1.5-0.8,3.5-2,5.9-3.6c4.8-3.1,11.1-7.3,17.4-11.6
		c12.5-8.6,24.9-17.3,24.9-17.3L88.9,166.3z"/>
</g>
<polygon fill="none" stroke="#2BC3E6" stroke-width="4" stroke-miterlimit="10" points="229.2,45.3 208.5,60.6 223.7,69.9 
	242.2,57.8 "/>
<polyline fill="none" stroke="#000000" stroke-width="3.4" stroke-miterlimit="10" points="221.3,68.5 235.5,59.2 227.1,49.6 
	211.1,61 "/>
<path fill="#FFFFFF" d="M84.5,154.6l4.8,3.2l1.3,1.9c-15.6,10.6-67.4,43.7-61.4,42.7c-14.3,1.6-24-1.5-24-1.5
	C23.5,194.6,84.5,154.6,84.5,154.6z"/>
<path fill="none" stroke="#2BC3E6" stroke-width="4" stroke-miterlimit="10" d="M80.1,153.1c0,0-63.1,42.8-75,47.8
	c0,0,44.2,19.1,92-27"/>
<path fill="none" stroke="#000000" stroke-width="5" stroke-miterlimit="10" d="M81.4,156.6l-69,43.8c0,0,38.1,13.4,82.6-27.9"/>
<path fill="#D3D5D6" d="M220.1,156.6c0,0,55,38,73.3,44.3c0,0-27.5,20-90.8-27.3l12.6-13.8L220.1,156.6z"/>
<path fill="#010101" d="M65.4,39.5"/>
<polygon fill="#D3D5D6" points="67.1,45.3 85.6,59.3 69.6,68.8 54.1,57.8 "/>
<polygon fill="#FFFFFF" points="63.8,53.1 78.8,64.5 85.6,59.3 73.4,50.1 68.8,46.8 62.4,48.5 "/>
<g>
	<polygon points="89.9,74.2 69.1,57.6 92.2,70.9 	"/>
</g>
<polygon fill="none" stroke="#2BC3E6" stroke-width="4" stroke-miterlimit="10" points="67.1,45.3 87.7,60.6 72.6,69.9 54.1,57.8 
	"/>
<g>
	<path d="M215.8,160.3c0,0,12.4,8.8,24.9,17.3c6.3,4.3,12.6,8.5,17.4,11.6c2.4,1.5,4.4,2.8,5.9,3.6c0.7,0.4,1.3,0.7,1.7,0.9
		c0.4,0.2,0.6,0.3,0.6,0.3s-0.2-0.1-0.6-0.2c-0.4-0.1-1.1-0.3-1.8-0.7c-1.5-0.6-3.7-1.6-6.3-2.9c-5.1-2.5-11.9-6-18.6-9.5
		c-13.5-7.1-26.8-14.4-26.8-14.4L215.8,160.3z"/>
</g>
<g>
	<polygon points="204,70.9 227.2,57.6 206.3,74.2 	"/>
</g>
<path fill="#FFFFFF" d="M216.6,154.6l-4.8,3.2l-1.3,1.9c15.6,10.6,67.4,43.7,61.4,42.7c14.3,1.6,24-1.5,24-1.5
	C277.6,194.6,216.6,154.6,216.6,154.6z"/>
<polyline fill="none" stroke="#000000" stroke-width="3.4" stroke-miterlimit="10" points="74.9,68.5 60.8,59.2 69.1,49.6 85.1,61 
	"/>
<path fill="none" stroke="#2BC3E6" stroke-width="4" stroke-miterlimit="10" d="M220.9,153.1c0,0,63.1,42.8,75,47.8
	c0,0-44.2,19.1-92-27"/>
<path fill="none" stroke="#000000" stroke-width="5" stroke-miterlimit="10" d="M219.6,156.6l69,43.8c0,0-38.1,13.4-82.6-27.9"/>
<path fill="none" stroke="#2BC3E6" stroke-width="11" stroke-miterlimit="10" d="M233.6,97.8l4.7-19.1c-58.2-18.4-31.5-56.5-73.1-64
	c0.4,1.5,0.5,2.9,0.5,4.6c0,9.7-7.8,17.5-17.5,17.5c-9.7,0-17.5-7.8-17.5-17.5c0-1.6,0.2-3.1,0.5-4.6c-41.6,7.5-15,45.6-73.5,64
	l4.7,19.1c0,0,2.9-0.6,8.5-1.4c0.3,1.2,0.8,2.4,1.3,3.4l1.4,2.5c2.8,4.3,6.3,6.7,6.3,6.7s-4.3,12.3-4.2,18l0.1,0c0,0,0,0,0,0
	l3.2-1.5c-0.1,0.8-2.6,22.6,11.2,38l0-0.1c0,0,0.2-0.2,0.2-0.2c0.1,0.1,1.2-2.3,1.2-2.3c1.6,2.8,11.1,18.8,26.6,24.6
	c0.1,0.1,5.8,1.7,8.2,1.9c0.2,0.1,0.3,0.2,0.5,0.4c0.6,0.6,10.1,5,11.9,5.2c3,0.6,6.7,0.9,11.3,0.9h0.1h0h0.1c0.4,0,0.8,0,1.2,0
	c0,0,0.2,0,0.3,0c0.2,0,0.4,0,0.5,0c4-0.1,7.2-0.5,9.9-1c1.7-0.2,5.4-1.2,6.5-1.9c3.1-1.3,4.6-2.7,5.1-3.3c0.2-0.1,8.6-2.1,8.7-2.2
	c15.6-5.8,25.3-22.1,26.8-24.8l0.9,2.8c0.1-0.1,10.3-21.1,10.2-21.2c1.8-9,1-16.3,1-16.8l3.2,1.5c0,0,0,0,0,0l0.1,0
	c0.2-5.7-4.2-18-4.2-18s3.5-2.4,6.3-6.7l1.4-2.4c0.4-0.9,0.8-1.8,1.1-2.7C232.3,97.5,233.6,97.8,233.6,97.8z"/>
<path fill="#303232" d="M165.6,14.7c0.4,1.5,0.5,2.9,0.5,4.6c0,9.7-7.8,17.5-17.5,17.5c-9.7,0-17.5-7.8-17.5-17.5
	c0-1.6,0.2-3.1,0.5-4.6c-41.6,7.5-15,45.6-73.5,64l4.7,19.1c0,0,30.5-6.4,85.5-6.4s85.5,6.4,85.5,6.4l4.7-19.1
	C180.5,60.2,207.2,22.1,165.6,14.7z"/>
<path d="M73.4,80c52-16.4,32.9-49.6,58.1-61.8c0.1-1.2,0.2-2.4,0.5-3.5c-41.6,7.5-15,45.6-73.5,64l4.7,19.1c0,0,3.6-0.8,10.6-1.7
	L73.4,80z"/>
<path fill="#FFFFFF" d="M150.9,194c19.2,0,23.5-6.5,23.5-6.5c22.2-2,35.3-27,35.3-27l0.8,2c14-15.7,11.5-37,11.5-37l3.3,1.5
	c0.2-5.7-4.2-18-4.2-18s16.3-11.2,6.3-28l2.2-2.3c0,0-14.2-13.8-35.5,1.3l-10.2-3.7l-2.8,0.7c0,0-21.3-5.5-30.3-1.7h-0.1
	c-9-3.8-30.3,1.7-30.3,1.7l-2.8-0.7L107.5,80C86.1,64.8,72,78.6,72,78.6l2.2,2.3c-10,16.8,6.3,28,6.3,28s-4.3,12.3-4.2,18l3.3-1.5
	c0,0-2.8,22.3,11.2,38l1.2-3c0,0,13.2,25,35.3,27C127.3,187.5,131.6,194,150.9,194L150.9,194z"/>
<path opacity="0.6" fill="#A9ABAE" d="M150.6,105.1L150.6,105.1C150.6,105.1,150.6,105.1,150.6,105.1
	C150.6,105.1,150.6,105.1,150.6,105.1L150.6,105.1c-10.5,0-15.5,5-15.5,5v1.2c0,5.5,15.4,10.5,15.4,10.5v0l0,0l0,0v0
	c0,0,15.4-5,15.4-10.5v-1.2C166.1,110.1,161.1,105.2,150.6,105.1z"/>
<polygon fill="#303232" points="164.9,100.8 182.1,92.9 200.6,96.3 197.3,99.1 202.9,112.4 194.8,111.9 188.8,137.6 177.2,123.9 
	174.1,107.2 "/>
<path opacity="0.6" fill="#A9ABAE" d="M210.5,152.8l-1.6-4.1c0,0-12.7,26.1-34.9,28.1c0,0-5.5,6.2-23.6,6.5v0c-0.1,0-0.1,0-0.2,0
	c-0.1,0-0.1,0-0.2,0l0,0c-18.1-0.3-23.1-6.5-23.1-6.5c-22.2-2-34.6-28.3-34.6-28.3l-1.9,4.3c-3.3-3.7-5.5-7.5-7.2-11.6
	c-0.9,0.5-2.1,0.7-3,1.2c1.4,6.8,4.3,14.5,10.2,21l1.2-3c0,0,13.2,25,35.3,27c0,0,5,6.2,23.1,6.5l0,0c0.1,0,0.1,0,0.2,0
	c0.1,0,0.1,0,0.2,0v0c18.1-0.3,23.6-6.5,23.6-6.5c22.2-2,35.2-26.9,35.2-26.9l1.3,2.9c5.9-6.6,9.2-14.5,10.6-21.3
	c-0.9-0.5-2.6-1.5-3.5-2C216,144.3,213.9,149.1,210.5,152.8z"/>
<polygon points="188.6,103.1 191.6,103.3 188.3,99.4 178.8,99.2 169.6,103.8 169.6,104.1 174.1,107.2 174.6,110 189.3,107.1 
	188.1,105.4 192.9,105.4 "/>
<path d="M108.3,81.4c0,0-6.2,1.8-12,11.5c0,0-5.2,7.5-7,8.5s-7.2,5.5-7.5,7.8l-9-8l-2.4-11.3l3.7-8.8l-2.1-1.3l3-3.8
	c0,0,6.5-2,7.2-2s4.8-0.2,5.8-0.2s7.8,0,7.8,0l4.5,1.8l4.5,2.2L108.3,81.4z"/>
<path fill="#303232" d="M169.6,161.9c0,5.6-6,10.2-13.4,10.2h-10.6c-7.4,0-13.4-4.6-13.4-10.2v-26.1c0-5.6,6-10.2,13.4-10.2h10.6
	c7.4,0,13.4,4.6,13.4,10.2V161.9z"/>
<path d="M164,158.8c0,4.6-4.2,8.3-9.4,8.3h-7.4c-5.2,0-9.4-3.7-9.4-8.3v-21.4c0-4.6,4.2-8.3,9.4-8.3h7.4c5.2,0,9.4,3.7,9.4,8.3
	V158.8z"/>
<path d="M150.6,102.3L150.6,102.3C150.6,102.3,150.6,102.3,150.6,102.3C150.6,102.3,150.6,102.3,150.6,102.3L150.6,102.3
	c-10.5,0-15.5,5-15.5,5v1.2c0,5.5,15.4,10.5,15.4,10.5v0l0,0l0,0v0c0,0,15.4-5,15.4-10.5v-1.2C166.1,107.3,161.1,102.3,150.6,102.3z
	"/>
<path fill="#C9CACC" d="M99,103.1l-0.1,0c-0.2,1.7-0.1,3.5-0.1,5.2c1.2,10.8,8.5,19.2,17.4,19.2c5.6,0,10.6-3.3,13.8-8.4l0,0
	c2.8-4.5,3.4-8.9,3.4-8.9l0,0c0.3-1.6,0.4-3.2,0.4-4.9C133.8,93.8,102.9,93,99,103.1z"/>
<path fill="#FFFFFF" d="M138.5,132.5c-1.2,0-2.2,0.7-2.7,1.6c0,0-0.4,1.1-0.4,1.4c0,0,0,0,0,0c-0.4,3.2-0.9,10.8,4.3,16.1l1.7-16.3
	l0,0C141.5,133.8,140.1,132.5,138.5,132.5z"/>
<path fill="#FFFFFF" d="M166.7,135.5c0-0.3-0.4-1.4-0.4-1.4c-0.5-1-1.5-1.6-2.7-1.6c-1.6,0-2.9,1.3-3,2.9l1.7,16.3
	C167.6,146.3,166.7,135.5,166.7,135.5z"/>
<path fill="#BEC0C2" d="M162.6,135.4c0.1-1.3,0.9-2.3,2.1-2.7c-0.3-0.1-0.6-0.2-0.9-0.2c-1.6,0-2.9,1.3-3,2.9l1.7,16.3
	c0.6-0.7,1.2-1.4,1.6-2.2L162.6,135.4z"/>
<path fill="#BEC0C2" d="M139.6,135.4c-0.1-1.3-0.9-2.3-2.1-2.7c0.3-0.1,0.6-0.2,0.9-0.2c1.6,0,2.9,1.3,3,2.9l-1.7,16.3
	c-0.6-0.7-1.2-1.4-1.6-2.2L139.6,135.4z"/>
<path fill="#FFFFFF" d="M146,129.2c-0.2,0-0.3,0-0.3,0s-3.6,0.1-3.6,3.6c0,0,2.2-0.4,5.4-0.6C146.7,131.4,146.1,130.3,146,129.2z"/>
<path opacity="0.2" fill="#FFFFFF" d="M200.8,86.4c0,0-1.2-3.5-2.2-4.2l4.2-2.5l-0.5,2.5c0,0,11.8-9.5,25-2.5l1-0.2v-1.8l-10-4.2
	l-10-0.8l-10.5,3.8l-4.5,5C193.3,81.4,199.8,85.1,200.8,86.4z"/>
<path opacity="0.2" fill="#FFFFFF" d="M100.1,87c0,0,1.1-4.5,2.1-5.3l-5.9-3.1l0.8,2.2c0,0-9.7-8.2-23-1.2l-1-0.2v-1.8l10-4.2
	l10-0.8l10.5,3.8l4.5,5C108.1,81.4,101.1,85.7,100.1,87z"/>
<path d="M192.9,81.4c0,0,6.2,1.8,12,11.5c0,0,5.2,7.5,7,8.5s6.6,5.8,7.5,7.8l9-8l2.4-11.3l-3.7-8.8l2.1-1.3l-3-3.8c0,0-6.5-2-7.2-2
	s-4.8-0.2-5.8-0.2s-7.8,0-7.8,0l-4.5,1.8l-4.5,2.2L192.9,81.4z"/>
<path opacity="0.2" fill="#FFFFFF" d="M201.6,86.8c0,0-1.1-3.9-2.1-4.7l5.6-3.6l-1.2,3c0,0,11.2-8.9,24.4-1.9l1-0.2v-1.8l-10-4.2
	l-10-0.8l-10.5,3.8l-4.5,5C194.3,81.4,200.6,85.6,201.6,86.8z"/>
<path fill="#FFFFFF" d="M218.8,108.3c0,0-5-11.1-8.4-14.2l-0.8,3.4c0,0-8.8-14.1-15-15.2l1.3,4.7l7.8,9.2l3.4,3.9l9.7,9.7
	L218.8,108.3z"/>
<path fill="#FFFFFF" d="M176.3,104.4c0,0,4.6-3.4,9.2-2C185.6,102.4,182.6,110.2,176.3,104.4z"/>
<path fill="#FFFFFF" d="M162.4,156.3c0,0-2.2,7-4.5,7.4l0.1,0.6l-1.1-0.6c0,0-3.6,0.8-5.8,0.7v0c-0.1,0-0.1,0-0.2,0
	c-0.1,0-0.2,0-0.2,0v0c-2.2,0.1-5.8-0.7-5.8-0.7l-1.1,0.6l0.1-0.6c-2.2-0.4-4.5-7.4-4.5-7.4l-0.6,5.8c0.7,5.9,10.5,5.1,12,4.9
	c1.6,0.2,11.3,1,12-4.9L162.4,156.3z"/>
<path fill="#CFD1D2" d="M158.1,164.6L158.1,164.6L158.1,164.6c-2.9,0.7-6.2,0.4-7.1,0.3c-0.9,0.1-4.1,0.4-7.1-0.3l0,0l0,0
	c-2.2-0.5-4.2-1.7-4.8-3.9l-0.2,1.6c0.7,5.9,10.5,5.1,12,4.9c1.6,0.2,11.3,1,12-4.9l-0.2-1.6C162.2,162.9,160.3,164,158.1,164.6z"/>
<line fill="none" stroke="#000000" stroke-width="4" stroke-miterlimit="10" x1="117.6" y1="76.3" x2="107.7" y2="80.6"/>
<path fill="#F26922" d="M244.7,62.6"/>
<path fill="none" stroke="#000000" stroke-width="4" stroke-miterlimit="10" d="M102.8,102.9c0,0-9.6,6.7-22.4,6.1"/>
<rect x="146.1" y="129.1" fill="#010101" width="9.2" height="3.3"/>
<path d="M122.6,102.6v-4c42.1,0,71.9-20.7,72.2-20.9l2,2.6C195.6,81.3,165.9,102.6,122.6,102.6z"/>
<path d="M97.2,100.8c0,0-0.5,1.6-0.2,5.2c1,11.2,8.5,19.2,17.4,19.2c5.6,0,10.6-3.3,13.8-8.4l0,0c2.8-4.5,3.4-8.9,3.4-8.9l0,0
	c0.3-1.6,0.4-3.2,0.4-4.9C132.1,91.5,101.1,90.8,97.2,100.8z"/>
<path fill="#303232" d="M107.5,79.5c0,0,36,18.5,88.8,0.1l-11.8-14.3c0,0-20-3.3-21.3-3.3s-23.4,0-24.4,0s-14.6,5.9-15.6,6.3
	c-1,0.4-14.2,6.3-14.2,6.3L107.5,79.5z"/>
<path fill="none" stroke="#000000" stroke-width="6" stroke-miterlimit="10" d="M230.2,97.1c2.5,0.4,3.8,0.7,3.8,0.7l4.7-19.1
	c-58.2-18.4-31.5-56.5-73.1-64c0.4,1.5,0.5,2.9,0.5,4.6c0,9.7-7.8,17.5-17.5,17.5c-9.7,0-17.5-7.8-17.5-17.5c0-1.6,0.2-3.1,0.5-4.6
	c-41.6,7.5-15,45.6-73.5,64l4.7,19.1c0,0,2.7-0.6,8.1-1.4"/>
<path d="M149.9,88.9c-24.1,0-43-6.6-43.3-6.7l1.2-4c0.4,0.1,46.1,15.9,88-1.7l1.5,3.6C181,87,164.4,88.9,149.9,88.9z"/>
<rect x="149.3" y="115.5" fill="#303232" width="2.8" height="11"/>
<path fill="#303232" d="M149.3,121.4c0,0-5.3,5.5-10.5,5.5h12v-4.4L149.3,121.4z"/>
<path fill="#303232" d="M152,121.4c0,0,5.3,5.5,10.5,5.5h-12v-4.4L152,121.4z"/>
<path fill="#010101" d="M154.3,129.2c0,0,5-0.4,5.4,2.9c0,0-0.7,2.2-0.9,2.2s-4.3-0.5-4.3-0.5l-0.9-2.9L154.3,129.2z"/>
<path fill="#303232" d="M150.6,115L150.6,115L150.6,115L150.6,115L150.6,115c-0.1,0-11.7-3.7-14.8-8.3c-0.5,0.4-0.7,0.6-0.7,0.6v1.2
	c0,5.5,15.4,10.5,15.4,10.5v0l0,0l0,0v0c0,0,15.4-5,15.4-10.5v-1.2c0,0-0.3-0.2-0.7-0.6C162.3,111.2,150.6,115,150.6,115z"/>
<path d="M143.6,132.7l0.8-0.9h0.9l0.5,0.2l0.5-0.6l0.6-0.5l0.4,0.9l1.6,0.2c0,0,0.1,0.6-0.2,0.6c-0.3,0.1-3.5,1.1-3.5,1.1
	L143.6,132.7z"/>
<path opacity="0.6" fill="#A9ABAE" d="M181.6,151.9c0,0,16-5.2,19-19c0,0,2.8,12.2-13,24c0,0,2.2-2.8,2.5-6.2L181.6,151.9z"/>
<path opacity="0.6" fill="#A9ABAE" d="M120.5,151.9c0,0-16-5.2-19-19c0,0-2.8,12.2,13,24c0,0-2.2-2.8-2.5-6.2L120.5,151.9z"/>
<polygon fill="#303232" points="192.3,114.3 194.9,120.1 192.3,119.2 196.7,129.1 189.6,122.9 188,115.6 "/>
<polygon points="188.8,137.4 189.6,134.2 179.4,122.1 177.6,112.5 179.6,108.8 176.4,107.6 174.1,107 177.2,123.8 "/>
<polygon points="165.1,100.8 172,105.6 172.2,104 173.1,100.8 182.2,92.9 "/>
<path fill="#F26922" d="M51.6,62.6"/>
<path fill="#FFFFFF" d="M82.9,107.1c0,0,4.5-9.9,7.9-13l0.8,3.4c0,0,8.8-14.1,15-15.2l-1.3,4.7l-7.8,9.2l-3.4,3.9l-7,5.9L82.9,107.1
	z"/>
<path fill="#FFFFFF" d="M154.9,129.1l0.2,2.9l0.7,0.8l1.2,1l0.2,1.8l1-2.4c0,0,0.1-2.3,0.1-3.3C156.4,129.1,156,129.3,154.9,129.1z"
	/>
<path d="M159.9,139.2l2,1.5l0.6,1.6l-0.2,3l0.1,2.4c0,0,0.2,3.1,1.4,4.5l-2,0.8l-3-1.9c0,0-1.6-8-1.5-8.4S159.9,139.2,159.9,139.2z"
	/>
<polygon fill="#FFFFFF" points="149.6,129.1 150,132.7 151.1,131.7 152.1,131.8 152.5,129.2 151.6,129.1 "/>
<path d="M148.6,36.7v50.1c0,0-34.1-2.3-40.9-6.2c-6.8-3.8-16.3-8.8-22.3-8.3s10-13.5,10-13.5l21.5-29.5l5.5-11l9.3-3.6
	C131.7,14.7,132.8,36.1,148.6,36.7z"/>
<polygon points="189.3,107.1 187.9,114.1 188.4,118.6 185.9,116.1 187.1,121.6 177.6,112.5 176.6,109.1 179.6,108.8 186.6,106.1 "/>
<ellipse cx="149.4" cy="67.3" rx="12.8" ry="11.3"/>
<path fill="none" stroke="#000000" stroke-width="6" stroke-miterlimit="10" d="M108.3,79.9c-21.3-15.2-36.4-1.2-36.4-1.2l2.2,2.3
	c-10,16.8,6.3,28,6.3,28s-4.3,12.3-4.2,18l3.3-1.5c0,0-2.8,22.3,11.2,38l1.2-3c0,0,13.2,25,35.3,27c0,0,4.3,6.5,23.5,6.5h0.1
	c19.2,0,23.5-6.5,23.5-6.5c22.2-2,35.3-27,35.3-27l1.2,3c13.2-17.7,11.2-38,11.2-38l3.3,1.5c0.2-5.7-4.2-18-4.2-18s16.3-11.2,6.3-28
	l2.2-2.3c0,0-14.1-13.3-35.4,1.9"/>
<path fill="#FFFFFF" d="M210.4,94.1c0,0,8.9,7.9,12.7,29.9l-4.8-1.9l-4.8-11.8L210.4,94.1z"/>
<path fill="#FFFFFF" d="M209.7,97.4c0,0-7-12.1-14.5-15.9c0,0-1.8,1.1-2,1.2l5,5.3c0,0,4.9,6.3,5.4,6.8s5.6,5.5,5.6,5.5L209.7,97.4z
	"/>
<polygon points="180.9,112.8 180.9,122.1 190.2,130.5 188.9,136.1 178.6,124.5 175.9,110.5 "/>
<path d="M47.5,209.3l-7.5,6.5l-0.4,17.1L37,244.1l-9.8,18.2l-5.2,7.3c0,0,74.2-25.5,114.2-20.9l33.4,1.3c0,0,25.6,0.6,26.7,0.6
	s40.6,7.5,40.6,7.5l20.7,5.6l17.6,6.6c0,0-6-6.6-6.3-8.1c-0.4-1.5-5.5-9.8-6.7-12.4c-1.1-2.6-5.8-10.5-5.8-10.5l0.1-18.2
	c0,0-2.3-8.8-3.5-9.6c-1.1-0.8-7.1-3.4-8.6-3.8C243,207.3,47.5,209.3,47.5,209.3z"/>
<path fill="none" stroke="#2BC3E6" stroke-width="2.75" stroke-miterlimit="10" d="M149.3,248.9c-40.2,0-89.3,3.6-128.9,22.6
	l18.3-30.8l0.6-19.4c0,0-0.6-12.6,15.8-12.6s93.3,0,93.3,0"/>
<path fill="none" stroke="#2BC3E6" stroke-width="2.75" stroke-miterlimit="10" d="M148.7,248.9c40.2,0,87.9,3.6,127.5,22.6
	l-19.6-30.8V221c0,0,1.2-12.4-15.1-12.4s-93.3,0-93.3,0"/>
<g>
	<g>
		<path fill="#FFFFFF" d="M62,225.8c0-0.8,0-1.9,0-3.5c-1.7,0.1-4.3,0.3-7.8,0.6c0,4.8,0,12.1-0.1,21.7c1.7-0.3,4.3-0.8,7.7-1.4
			c0-0.8,0-1.9,0-3.5c1.7-0.3,4.3-0.7,7.7-1.1c0,1.5,0,3.7,0,6.7c0,0.9-0.4,1.8-1.1,2.6c-0.8,0.8-1.7,1.3-2.7,1.5
			c-3.4,0.7-8.6,1.8-15.3,3.4c-1.1,0.3-2,0.1-2.7-0.4c-0.8-0.5-1.1-1.3-1.1-2.4c0-2.5,0-6.3,0-11.3c0-2.1,0-4.7,0-7.8
			c0-3.2,0-6.8,0-11c0-1,0.4-1.9,1.2-2.7c0.7-0.7,1.6-1.1,2.7-1.2c3.4-0.2,8.6-0.4,15.5-0.6c1.1,0,2,0.3,2.7,0.9
			c0.7,0.6,1.1,1.4,1.1,2.3c0,1.5,0,3.7,0,6.7C68,225.3,65.5,225.5,62,225.8z"/>
		<path fill="#FFFFFF" d="M76.2,215c1.3,0,3.9-0.1,7.8-0.1c0,3.9-0.1,11.8-0.2,23.5c0,1.3,0,3.9-0.1,7.8c-1.3,0.2-3.9,0.6-7.7,1.2
			c0-2.7,0.1-6.7,0.1-12.1C76,229.9,76.1,223.1,76.2,215z"/>
		<path fill="#FFFFFF" d="M109.8,228.9c1.1,0,2,0.2,2.8,0.7c0.7,0.5,1.1,1.2,1.1,2c0,2.5,0,6.3-0.1,11.3c-1.7,0.1-4.4,0.3-7.8,0.6
			c0-2.6,0.1-6.4,0.1-11.6c-1.7,0.1-4.4,0.2-7.9,0.5c0,2.6-0.1,6.6-0.1,11.9c-1.7,0.2-4.3,0.5-7.8,0.9c0-2.7,0.1-6.8,0.1-12.2
			c0-1.4,0-3.4,0.1-6.1c0-1.4,0-3.1,0-5.1c0-2,0-4.4,0.1-7.1c1.7,0,4.3,0,7.8-0.1c2.6,0,6.5,0,11.8,0c1.1,0,2,0.3,2.8,0.8
			c0.7,0.6,1.1,1.2,1.1,2c0,1.9,0,4.7-0.1,8.5c0,0.8-0.4,1.4-1.1,2C111.8,228.6,110.8,228.9,109.8,228.9z M105.8,226.2
			c0-0.2,0-0.6,0-1c0-1.1,0-2.7,0-4.8c-1.7,0-4.4,0.1-7.9,0.2c0,1.3,0,3.3-0.1,6C99.8,226.5,102.4,226.4,105.8,226.2z"/>
		<path fill="#FFFFFF" d="M128,220.2c0,2.4,0,4.3,0,5.5c5.3-0.1,9.2-0.1,11.9,0c0,2.4,0,4.2,0,5.4c-5.3,0-9.2,0.1-11.9,0.1
			c0,2.4,0,4.3,0,5.5c7-0.2,12.3-0.2,15.8-0.2c0,2.4,0,4.2,0,5.4c-7,0-12.3,0.1-15.8,0.3c-3.5,0.1-6.1,0.3-7.9,0.4
			c0-1.2,0-2.3,0-3.3c0-0.9,0-1.7,0-2.3c0-2.8,0-4.7,0-5.6c0-2.8,0-4.6,0-5.6c0-2.8,0-4.7,0-5.6c0-2.8,0-4.6,0-5.6
			c3.9,0,6.5,0,7.8,0c7.9,0,13.1,0.1,15.7,0.1c0,2.7,0,4.5,0,5.4C136.7,220.2,131.5,220.2,128,220.2z"/>
		<path fill="#FFFFFF" d="M150.1,239.2c0-2.7,0-6.1,0-10.1c0-4.1,0-8.8,0-14.2c1.7,0,4.3,0,7.8,0.1c0,4.8,0,12.1,0.1,21.8
			c1.8,0.1,4.4,0.1,7.9,0.3c0-4.9-0.1-12.2-0.1-21.9c1.7,0,4.3,0,7.8,0.1c0,4.9,0.1,12.3,0.1,22.2c1.8,0.1,4.4,0.2,7.9,0.5
			c0-5-0.1-12.6-0.2-22.6c1.7,0,4.3,0,7.8,0.1c0,5.8,0.1,14.4,0.2,26c0,0.8-0.4,1.5-1.1,1.9c-0.8,0.5-1.7,0.7-2.8,0.6
			c-2.6-0.2-6.6-0.6-11.9-0.9c-1.1-0.1-2-0.4-2.8-1c-0.8-0.6-1.1-1.2-1.1-2c0,0.8-0.4,1.4-1.2,1.9c-0.7,0.5-1.7,0.7-2.8,0.7
			c-2.6-0.1-6.6-0.3-11.8-0.4c-1.1,0-2-0.3-2.8-0.9C150.5,240.6,150.1,240,150.1,239.2z"/>
		<path fill="#FFFFFF" d="M219.1,215.4c0,5.7,0.1,10.1,0.1,13c0,2.9,0,5,0,6.5c0,5.8,0.1,10.1,0.1,13c-3.4-0.5-6-0.8-7.7-1.1
			c0-5.6-0.1-9.8-0.1-12.5c-3.5-0.3-6.1-0.5-7.8-0.6c0,5.4,0.1,9.5,0.1,12.1c-3.5-0.4-6.1-0.7-7.8-0.9c0-2.9,0-5.4-0.1-7.4
			c0-2,0-3.5,0-4.4c0-3,0-4.9-0.1-5.9c-0.1-5.9-0.1-9.9-0.1-11.8c3.9,0,6.5,0,7.8,0c0.1,6.1,0.1,10.1,0.1,12.1
			c3.9,0.2,6.5,0.3,7.8,0.4c-0.1-6.3-0.1-10.5-0.1-12.5C214.8,215.4,217.4,215.4,219.1,215.4z"/>
		<path fill="#FFFFFF" d="M248.6,218.8c0,6.7,0,16.7,0,30.1c0,1.1-0.4,1.9-1.1,2.5c-0.8,0.6-1.7,0.8-2.7,0.6
			c-3.4-0.6-8.5-1.5-15.3-2.6c-1.1-0.2-2-0.7-2.7-1.4c-0.8-0.8-1.2-1.6-1.2-2.5c0-2.2,0-5.6-0.1-10.1c0-1.8,0-4.1,0-6.9
			c0-2.8,0-6.1-0.1-9.8c0-0.9,0.4-1.7,1.1-2.4c0.7-0.6,1.6-1,2.7-1c3.4,0,8.6-0.1,15.5-0.2c1,0,2,0.3,2.7,1
			C248.3,216.9,248.6,217.8,248.6,218.8z M233.3,243c1.7,0.2,4.3,0.6,7.7,1c0-0.3,0-0.8,0-1.4c0-4.5,0-11.3-0.1-20.3
			c-1.7,0-4.3-0.1-7.8-0.2c0,2.3,0,5.8,0.1,10.4C233.3,234.9,233.3,238.4,233.3,243z"/>
	</g>
</g>
<polygon fill="#FFFFFF" points="57.3,251.1 37.7,257.1 48.6,241.7 "/>
<polygon fill="#FFFFFF" points="239.1,251 259.1,257.1 248.2,241.7 "/>
<polygon points="229.3,77.6 229.6,86.3 232.6,91 237.2,87.3 238.7,78.7 "/>
<path fill="#2BC3E6" d="M70.6,135.5c0,0-2.4-15,3-24.8l0.8,2.5l-2.9,9.4l0.1,5.2v4.2L70.6,135.5z"/>
<path fill="#2BC3E6" d="M227.4,134.1c0,0,0.3,20.7-19,40.3l0.2-2l8-9.5l6.2-15.2l2.3-10.3L227.4,134.1z"/>
<g>
	<path fill="#2BC3E6" d="M150.2,64.8c0-0.3,0-0.7,0-1.3c-0.6,0-1.4,0-2.6,0c0,1.7,0,4.4,0,7.8c0.6,0,1.5,0,2.6,0c0-0.3,0-0.7,0-1.3
		c0.6,0,1.4,0,2.6,0c0,0.6,0,1.4,0,2.6c0,0.4-0.1,0.7-0.4,0.9c-0.3,0.3-0.6,0.4-0.9,0.4c-1.2,0-2.9,0-5.2,0c-0.4,0-0.7-0.1-0.9-0.4
		c-0.3-0.2-0.4-0.6-0.4-0.9c0-0.9,0-2.2,0-3.9c0-0.7,0-1.6,0-2.7c0-1.1,0-2.4,0-3.8c0-0.4,0.1-0.7,0.4-0.9c0.2-0.2,0.6-0.4,0.9-0.4
		c1.2,0,2.9,0,5.2,0c0.4,0,0.7,0.1,0.9,0.4c0.2,0.3,0.4,0.6,0.4,0.9c0,0.6,0,1.5,0,2.6C152.3,64.8,151.4,64.8,150.2,64.8z"/>
</g>
<path fill="#2BC3E6" d="M70,26.5c0,6.7-5.4,11.4-5.4,11.4c-2.8-7.7-7.9-11.2-12.8-13.5c-2.7,2.9-7.8,2-7.8,2c1.6-1.1,2.5-2.8,2.9-4
	c-0.2-0.1-0.4-0.1-0.5-0.2c-2.8,2.2-7.2,1.5-7.2,1.5c1.3-0.9,2.2-2.3,2.7-3.5c-0.2-0.1-0.5-0.3-0.7-0.4c-2.8,1.6-6.5,1-6.5,1
	c1.7-1.2,2.6-3,3-4.3c-1.2-1.5-2-3.1-2.7-4.4c-4.6,4.5-7,9-7.5,12.8c1.6,3.1,5,6.6,11.8,9.7c17.9,8.2,15.5,15,15.5,15
	s-9.9,7.4-26.9-11.9c0,0-2.3-2.2-3.7-5.8c-0.7-1.6-1.1-3.4-1-5.5c0-0.1,0-0.1,0-0.2c0-1.6,0.4-3.4,1.1-5.3C26.4,15.8,30.4,10.2,37,5
	l-4.8-4.3l-3,3.5c-1.1-2-1.9-3-3-3.5c-1.7-1.1-4.4-1.5-8,2.3c-3,3.2-3.7,5.6-3.5,7.4c0,0.2,0,0.5,0,0.6c0.1,0.5,0.4,1,0.9,1.5
	c0.6,0.9,1.5,1.6,2.2,2.1l0,0c0.7,0.5,1.2,0.8,1.2,0.8c-5.2,12.1-0.7,21.9,3.9,27.1c14.5,16.5,27.1,15.1,27.1,15.1l-9.5,8.7
	c1.3,4,6.6,4.7,6.6,4.7l32.4-35.8L70,26.5z"/>
<path fill="#2BC3E6" d="M227.7,28.2c0,6.7,5.4,11.4,5.4,11.4c2.8-7.7,7.9-11.2,12.8-13.5c2.7,2.9,7.8,2,7.8,2
	c-1.6-1.1-2.5-2.8-2.9-4c0.2-0.1,0.4-0.1,0.5-0.2c2.8,2.2,7.2,1.5,7.2,1.5c-1.3-0.9-2.2-2.3-2.7-3.5c0.2-0.1,0.5-0.3,0.7-0.4
	c2.8,1.6,6.5,1,6.5,1c-1.7-1.2-2.6-3-3-4.3c1.2-1.5,2-3.1,2.7-4.4c4.6,4.5,7,9,7.5,12.8c-1.6,3.1-5,6.6-11.8,9.7
	c-17.9,8.2-15.5,15-15.5,15s9.9,7.4,26.9-11.9c0,0,2.3-2.2,3.7-5.8c0.7-1.6,1.1-3.4,1-5.5c0-0.1,0-0.1,0-0.2c0-1.6-0.4-3.4-1.1-5.3
	c-1.8-5.1-5.9-10.7-12.4-15.9l4.8-4.3l3,3.5c1.1-2,1.9-3,3-3.5c1.7-1.1,4.4-1.5,8,2.3c3,3.2,3.7,5.6,3.5,7.4c0,0.2,0,0.5,0,0.6
	c-0.1,0.5-0.4,1-0.9,1.5c-0.6,0.9-1.5,1.6-2.2,2.1l0,0c-0.7,0.5-1.2,0.8-1.2,0.8c5.2,12.1,0.7,21.9-3.9,27.1
	c-14.5,16.5-27.1,15.1-27.1,15.1l9.5,8.7c-1.3,4-6.6,4.7-6.6,4.7L218,37L227.7,28.2z"/>
</svg>
