<?xml version="1.0" encoding="utf-8"?>
<!-- Generator: Adobe Illustrator 18.1.1, SVG Export Plug-In . SVG Version: 6.00 Build 0)  -->
<svg version="1.1" id="Capa_1" xmlns="http://www.w3.org/2000/svg" xmlns:xlink="http://www.w3.org/1999/xlink" x="0px" y="0px"
	 viewBox="-221.9 135.1 742 742" enable-background="new -221.9 135.1 742 742" xml:space="preserve">
<g>
	<g>
		<circle fill="none" stroke="#C2C2C2" stroke-width="14" stroke-miterlimit="10" cx="149.1" cy="506.1" r="340.5"/>
		<circle fill="none" stroke="#C2C2C2" stroke-width="4" stroke-miterlimit="10" cx="149.1" cy="506.1" r="369"/>
	</g>
	<g id="XMLID_51_">
		<path id="XMLID_53_" fill="#C2C2C2" d="M77.5,686.9c0,2.6,1.4,4.9,3.7,6.1c2.3,1.2,5,1,7.1-0.4l47.6-32.5l-58.4-27.9L77.5,686.9
			L77.5,686.9z"/>
		<path id="XMLID_52_" fill="#C2C2C2" d="M360.8,320.2c-1.3-1.2-3-1.8-4.7-1.8c-1,0-2.1,0.2-3,0.7L-58.1,520.7
			c-4.2,2.1-6.9,6.4-6.8,11.1c0,4.7,2.7,9,7,11l108.4,51.6l216.7-178.1L77.3,607.2l135,64.3c1.7,0.8,3.5,1.2,5.3,1.2
			c1.5,0,3-0.3,4.5-0.8c3.1-1.2,5.6-3.7,6.9-6.9l133.6-337.1C363.6,325.2,362.9,322.1,360.8,320.2z"/>
	</g>
</g>
</svg>
