<?xml version="1.0" encoding="utf-8"?>
<!-- Generator: Adobe Illustrator 18.1.1, SVG Export Plug-In . SVG Version: 6.00 Build 0)  -->
<svg version="1.1" id="Capa_1" xmlns="http://www.w3.org/2000/svg" xmlns:xlink="http://www.w3.org/1999/xlink" x="0px" y="0px"
	 viewBox="-156.4 190.2 742 742" enable-background="new -156.4 190.2 742 742" xml:space="preserve">
<g>
	<g>
		<g>
			<circle fill="none" stroke="#C2C2C2" stroke-width="14" stroke-miterlimit="10" cx="214.6" cy="561.2" r="340.5"/>
			<circle fill="none" stroke="#C2C2C2" stroke-width="4" stroke-miterlimit="10" cx="214.6" cy="561.2" r="369"/>
		</g>
	</g>
</g>
<g>
	<path fill="#C2C2C2" d="M359.4,593.4c-49.3,0-89.4,40.1-89.4,89.4c0,49.3,40.1,89.4,89.4,89.4s89.4-40.1,89.4-89.4
		C448.8,633.5,408.7,593.4,359.4,593.4z M359.4,757.3c-41.1,0-74.5-33.4-74.5-74.5c0-41.1,33.4-74.5,74.5-74.5s74.5,33.4,74.5,74.5
		C433.9,723.9,400.5,757.3,359.4,757.3z"/>
	<path fill="#C2C2C2" d="M404.1,675.4h-37.3v-37.3c0-4.1-3.3-7.5-7.5-7.5c-4.1,0-7.5,3.3-7.5,7.5v44.7c0,4.1,3.3,7.5,7.5,7.5h44.7
		c4.1,0,7.5-3.3,7.5-7.5C411.5,678.7,408.2,675.4,404.1,675.4z"/>
	<path fill="#C2C2C2" d="M217.8,496.5h-14.9h-52.2h-14.9H68.8v67.1v14.9v52.2v14.9v67.1h67.1h14.9h67.1v-67.1v-14.9v-52.2H270h14.9
		h67.1v-82h-67.1H270H217.8z M284.9,511.4H337v52.2h-52.2V511.4z M150.7,511.4h52.2v52.2h-52.2V511.4z M83.7,511.4h52.2v52.2H83.7
		V511.4z M83.7,578.5h52.2v52.2H83.7V578.5z M135.8,697.7H83.7v-52.2h52.2V697.7z M202.9,697.7h-52.2v-52.2h52.2V697.7z
		 M202.9,630.7h-52.2v-52.2h52.2V630.7z M270,563.6h-52.2v-52.2H270V563.6z"/>
	<path fill="#C2C2C2" d="M262.5,749.9h-231V459.3h357.7v96.9c0,4.1,3.3,7.5,7.5,7.5c4.1,0,7.5-3.3,7.5-7.5V451.8v-74.5
		c0-4.1-3.3-7.5-7.5-7.5h-37.3v-22.4c0-4.1-3.3-7.5-7.5-7.5h-52.2c-4.1,0-7.5,3.3-7.5,7.5v22.4H128.4v-22.4c0-4.1-3.3-7.5-7.5-7.5
		H68.8c-4.1,0-7.5,3.3-7.5,7.5v22.4H24.1c-4.1,0-7.5,3.3-7.5,7.5v74.5v305.5c0,4.1,3.3,7.5,7.5,7.5h238.4c4.1,0,7.5-3.3,7.5-7.5
		C270,753.2,266.6,749.9,262.5,749.9z M307.2,355h37.3v22.4v22.4h-37.3v-22.4V355z M76.2,355h37.3v22.4v22.4H76.2v-22.4V355z
		 M31.5,384.8h29.8v22.4c0,4.1,3.3,7.5,7.5,7.5h52.2c4.1,0,7.5-3.3,7.5-7.5v-22.4h163.9v22.4c0,4.1,3.3,7.5,7.5,7.5h52.2
		c4.1,0,7.5-3.3,7.5-7.5v-22.4h29.8v59.6H31.5V384.8z"/>
</g>
</svg>
